<svg width="23" height="28" viewBox="0 0 23 28" fill="none" xmlns="http://www.w3.org/2000/svg">
<path d="M19.9721 2.08323V11.2724C19.9721 16.4054 18.4005 20.4306 15.3058 23.2245C13.5973 24.7692 11.8535 25.5151 11.0235 25.8108C10.2245 25.5284 8.56012 24.8134 6.88694 23.348C3.70394 20.5542 2.08816 16.4893 2.08816 11.2768V2.08764H19.9721V2.08323ZM22.0603 0H0V11.2768C0 25.3607 11.0279 28 11.0279 28C11.0279 28 22.0559 25.3607 22.0559 11.2768L22.0603 0Z" fill="white"/>
<path d="M9.54474 22.2535C6.0792 20.7396 4.17204 16.3128 4.17204 12.058V4.1709H9.54474V22.2535Z" fill="white"/>
<path d="M12.5156 4.1709V11.7094C12.5156 14.0795 11.6282 14.8607 11.6282 14.8607H14.4006C16.7581 14.8607 17.8883 13.7352 17.8883 11.3739V4.1709H12.5156Z" fill="white"/>
</svg>
