<?xml version="1.0" encoding="utf-8"?>
<!-- Generator: Adobe Illustrator 26.0.0, SVG Export Plug-In . SVG Version: 6.00 Build 0)  -->
<svg version="1.1" id="Capa_1" xmlns="http://www.w3.org/2000/svg" xmlns:xlink="http://www.w3.org/1999/xlink" x="0px" y="0px"
 width="140" height="40" viewBox="0 0 129 29" style="enable-background:new 0 0 129 29;" xml:space="preserve">
<style type="text/css">
	.st0{fill:#635CF8;}
</style>
<g>
	<g>
		<path class="st0" d="M19.8,2.6l0,9.1c0,5.1-1.6,9.1-4.6,11.8c-1.7,1.5-3.4,2.3-4.2,2.6c-0.8-0.3-2.4-1-4.1-2.4
			c-3.2-2.8-4.8-6.8-4.8-12l0-9.1H19.8 M21.8,0.5H0l0,11.2c0,13.9,10.9,16.6,10.9,16.6s10.9-2.6,10.9-16.6L21.8,0.5L21.8,0.5z"/>
	</g>
	<path class="st0" d="M9.4,22.5C6,21,4.1,16.6,4.1,12.4V4.6h5.3V22.5z"/>
	<path class="st0" d="M6.3,14.4l5.3,5.3c1.7,1.7,1.6,2.8,1.6,2.8l1.9-1.9c1.7-1.7,1.7-3.2,0-4.9l-5-5L6.3,14.4z"/>
	<path class="st0" d="M9.9,14.7l5.3-5.3C16.8,7.7,18,7.8,18,7.8L16,5.9c-1.7-1.7-3.2-1.7-4.9,0l-5,5L9.9,14.7z"/>
	<g>
		<path class="st0" d="M76.5,8c0-0.9,0.7-1.6,1.5-1.6c0.8,0,1.5,0.7,1.5,1.6c0,0.9-0.7,1.6-1.5,1.6C77.2,9.6,76.5,9,76.5,8z
			 M79.3,8.1V8c0-0.7-0.5-1.3-1.3-1.3c-0.7,0-1.3,0.6-1.3,1.3v0.2c0,0.7,0.5,1.3,1.3,1.3C78.8,9.4,79.3,8.8,79.3,8.1z M77.7,8.9
			h-0.2V7.3h0.7c0.3,0,0.5,0.2,0.5,0.5c0,0.3-0.1,0.4-0.3,0.5l0.4,0.7h-0.3l-0.4-0.6h-0.4V8.9z M78.1,8c0.2,0,0.2-0.1,0.2-0.2V7.7
			c0-0.2-0.1-0.2-0.2-0.2h-0.4V8H78.1z"/>
	</g>
	<g>
		<path class="st0" d="M34.2,14l-1.8,1.9v3.8h-1.8V7h1.8v6.6l6-6.6h2.3l-5.3,5.7l5.4,7.1h-2.2L34.2,14z"/>
		<path class="st0" d="M42,19.7v-13h1.7v13H42z"/>
		<path class="st0" d="M49.3,20c-2,0-3.2-1.5-3.2-3.5v-5.4h1.7v5.2c0,1.2,0.5,2.2,2,2.2c1.4,0,2-0.9,2-2.2v-5.2h1.7v7
			c0,0.7,0.1,1.3,0.1,1.6h-1.6c0-0.2-0.1-0.7-0.1-1C51.4,19.6,50.3,20,49.3,20z"/>
		<path class="st0" d="M56,19.7v-13h1.7v5.6c0.4-0.8,1.4-1.5,2.9-1.5c2.6,0,4,2,4,4.5c0,2.6-1.5,4.6-4,4.6c-1.3,0-2.3-0.6-2.8-1.5
			v1.3H56z M60.2,12.3c-1.5,0-2.6,1.2-2.6,3c0,1.9,1.1,3.1,2.6,3.1c1.5,0,2.5-1.2,2.5-3.1C62.7,13.5,61.7,12.3,60.2,12.3z"/>
		<path class="st0" d="M74.4,15.4c0,2.6-1.8,4.6-4.4,4.6c-2.6,0-4.4-2-4.4-4.6c0-2.6,1.8-4.6,4.4-4.6C72.5,10.8,74.4,12.8,74.4,15.4
			z M72.6,15.4c0-2-1.3-3.1-2.7-3.1c-1.4,0-2.7,1.1-2.7,3.1c0,2,1.3,3.1,2.7,3.1C71.4,18.5,72.6,17.4,72.6,15.4z"/>
	</g>
</g>
</svg>
