<svg id="Capa_1" data-name="Capa 1" xmlns="http://www.w3.org/2000/svg" width="250" height="150" viewBox="0 0 79.6 27.7">
  <defs>
    <style>
      .cls-1 {
        fill: #fff;
      }
    </style>
  </defs>
  <g>
    <path class="cls-1" d="M0,.5V11.7C0,25.6,10.9,28.2,10.9,28.2s10.9-2.6,10.9-16.5V.5Zm15.1,23a13.2,13.2,0,0,1-4.2,2.6,13.3,13.3,0,0,1-4.1-2.5c-3.1-2.8-4.7-6.8-4.7-11.9V2.6H19.8v9.1C19.8,16.7,18.2,20.7,15.1,23.5Z" transform="translate(0 -0.5)"/>
    <path class="cls-1" d="M18,7.8,16,5.9q-2.4-2.6-4.8,0L9.4,7.6v-3H4.1v7.8C4.1,16.6,6,21,9.4,22.5v-5l2.2,2.2c1.7,1.7,1.6,2.8,1.6,2.8l1.9-1.9c1.7-1.7,1.7-3.2,0-4.9L12,12.6l3.2-3.2C16.8,7.7,18,7.8,18,7.8Z" transform="translate(0 -0.5)"/>
    <path class="cls-1" d="M78,6.5A1.5,1.5,0,0,0,76.5,8,1.5,1.5,0,0,0,78,9.6,1.5,1.5,0,0,0,79.6,8,1.5,1.5,0,0,0,78,6.5Zm0,2.9a1.2,1.2,0,0,1-1.2-1.3h0A1.2,1.2,0,0,1,78,6.7,1.3,1.3,0,0,1,79.3,8h0A1.3,1.3,0,0,1,78,9.4Z" transform="translate(0 -0.5)"/>
    <path class="cls-1" d="M78.6,7.7c0-.3-.1-.4-.4-.4h-.7V8.9h.2V8.2h.4l.3.7h.3l-.4-.7C78.5,8.2,78.6,8,78.6,7.7Zm-.9.3V7.5h.4c.2,0,.3,0,.3.2h0c0,.2-.1.2-.3.2Z" transform="translate(0 -0.5)"/>
    <polygon class="cls-1" points="40.6 6.5 38.3 6.5 32.4 13.1 32.4 6.5 30.6 6.5 30.6 19.2 32.4 19.2 32.4 15.4 34.2 13.5 38.5 19.2 40.7 19.2 35.3 12.2 40.6 6.5"/>
    <rect class="cls-1" x="42" y="6.2" width="1.7" height="12.99"/>
    <path class="cls-1" d="M53.4,11.1H51.8v5.2a2,2,0,0,1-2.1,2.2c-1.4,0-1.9-1-1.9-2.2V11.1H46.1v5.4A3.2,3.2,0,0,0,49.3,20a2.7,2.7,0,0,0,2.5-1.3c0,.4.1.8.1,1h1.6c0-.3-.1-.9-.1-1.6Z" transform="translate(0 -0.5)"/>
    <path class="cls-1" d="M60.5,10.8a3.1,3.1,0,0,0-2.9,1.5V6.7H56v13h1.6V18.5A3.3,3.3,0,0,0,60.4,20c2.6,0,4-2.1,4-4.6S63.1,10.8,60.5,10.8Zm-.3,7.7c-1.5,0-2.6-1.3-2.6-3.1s1.1-3.1,2.6-3.1,2.5,1.2,2.5,3.1S61.7,18.5,60.2,18.5Z" transform="translate(0 -0.5)"/>
    <path class="cls-1" d="M69.9,10.8a4.4,4.4,0,0,0-4.4,4.6,4.5,4.5,0,1,0,8.9,0A4.4,4.4,0,0,0,69.9,10.8Zm0,7.7a2.8,2.8,0,0,1-2.7-3.1,2.8,2.8,0,0,1,2.7-3.1c1.5,0,2.7,1.1,2.7,3.1S71.4,18.5,69.9,18.5Z" transform="translate(0 -0.5)"/>
  </g>
</svg>
