<?xml version="1.0" encoding="iso-8859-1"?>
<!-- Generator: Adobe Illustrator 19.0.0, SVG Export Plug-In . SVG Version: 6.00 Build 0)  -->
<svg version="1.1" id="Capa_1" xmlns="http://www.w3.org/2000/svg" xmlns:xlink="http://www.w3.org/1999/xlink" x="0px" y="0px"
	 viewBox="0 0 58 58" style="enable-background:new 0 0 58 58;" xml:space="preserve">
<g>
	<g>
		<path d="M57.978,5.506C57.753,2.433,55.187,0,52.058,0h-6.646C20.372,0,0,20.372,0,45.412v6.646c0,2.206,1.211,4.131,3,5.156
			v0.047l0.606,0.26c0.002,0.001,0.004,0.001,0.006,0.002c0.362,0.155,0.742,0.276,1.137,0.356c0.032,0.007,0.064,0.009,0.096,0.015
			c0.162,0.03,0.325,0.058,0.492,0.075C5.537,57.99,5.739,58,5.942,58h6.646C37.628,58,58,37.628,58,12.588V5.942V5.528
			L57.978,5.506z M2,45.412C2,21.475,21.475,2,45.412,2h6.646c1.673,0,3.096,1.052,3.668,2.526c-1.807,0.363-3.173,1.96-3.173,3.872
			v0.743c0,23.938-19.475,43.412-43.412,43.412h-2.19c-1.624,0-3.02,0.986-3.627,2.43C2.518,54.261,2,53.223,2,52.058V45.412z
			 M56,12.588C56,36.525,36.525,56,12.588,56H5.942c-0.279,0-0.554-0.032-0.823-0.089c-0.008-0.002-0.015-0.005-0.023-0.007
			c0.254-0.783,0.99-1.35,1.856-1.35h2.19c25.041,0,45.412-20.372,45.412-45.412V8.398c0-0.901,0.615-1.662,1.447-1.885L56,12.588
			L56,12.588z"/>
		<path d="M6.683,49.428C6.788,49.463,6.895,49.48,7,49.48c0.418,0,0.808-0.265,0.948-0.683c1.267-3.786,2.621-7.28,4.025-10.385
			c0.228-0.503,0.004-1.096-0.499-1.323c-0.503-0.228-1.096-0.004-1.323,0.499c-1.432,3.167-2.812,6.725-4.1,10.575
			C5.876,48.686,6.159,49.252,6.683,49.428z"/>
		<path d="M14.737,30.853C14.9,30.953,15.08,31,15.258,31c0.337,0,0.666-0.17,0.854-0.478c8.039-13.142,18.69-18.894,32.21-23.486
			c0.523-0.178,0.803-0.746,0.625-1.269c-0.178-0.522-0.743-0.802-1.269-0.625c-13.931,4.732-24.92,10.682-33.272,24.336
			C14.118,29.949,14.266,30.565,14.737,30.853z"/>
	</g>
</g>
<g>
</g>
<g>
</g>
<g>
</g>
<g>
</g>
<g>
</g>
<g>
</g>
<g>
</g>
<g>
</g>
<g>
</g>
<g>
</g>
<g>
</g>
<g>
</g>
<g>
</g>
<g>
</g>
<g>
</g>
</svg>
