<?xml version="1.0" encoding="iso-8859-1"?>
<!-- Generator: Adobe Illustrator 19.0.0, SVG Export Plug-In . SVG Version: 6.00 Build 0)  -->
<svg version="1.1" id="Capa_1" xmlns="http://www.w3.org/2000/svg" xmlns:xlink="http://www.w3.org/1999/xlink" x="0px" y="0px"
	 viewBox="0 0 52.001 52.001" style="enable-background:new 0 0 52.001 52.001;" xml:space="preserve">
<g>
	<g>
		<path d="M43.962,45.363c-0.334-0.639-0.86-1.393-1.567-2.103c-0.011-0.011-0.021-0.022-0.031-0.033
			c-0.05-0.05-0.102-0.099-0.154-0.148c-0.853-0.827-2.004-1.632-3.485-2.007c-0.76-0.194-1.544-0.243-2.345-0.182
			c-0.044,0.003-0.085,0.001-0.129,0.005c-0.29-1.258-0.688-2.6-1.158-3.986c1.748-2.009,3.444-4.143,5.018-6.331
			C48.462,18.969,54.49,4.583,49.217,0.791c-2.369-1.704-6.25-0.644-11.223,3.071c-4.255,3.177-8.856,7.992-13.085,13.645
			c-0.003-0.004-0.006-0.008-0.008-0.012c-0.289-0.41-0.582-0.817-0.877-1.221C21.036,12.173,17.9,8.62,14.891,5.945l-0.328-0.291
			l-0.039,0.004C10.038,1.764,5.806-0.199,3.071,1.532c-2.466,1.562-2.929,5.559-1.34,11.559c0.05,0.188,0.116,0.387,0.17,0.577
			l-0.009,0.016l0.123,0.421c0.07,0.239,0.153,0.486,0.228,0.728c0.064,0.207,0.127,0.412,0.195,0.622
			c0.199,0.608,0.411,1.224,0.642,1.851c0.053,0.143,0.11,0.289,0.165,0.433c0.211,0.558,0.435,1.122,0.671,1.693
			c0.113,0.274,0.233,0.551,0.352,0.827c0.182,0.424,0.371,0.851,0.566,1.281c0.135,0.296,0.268,0.592,0.408,0.89
			c0.231,0.491,0.473,0.985,0.719,1.482c0.18,0.364,0.364,0.727,0.553,1.093c0.271,0.525,0.547,1.05,0.833,1.579
			c0.167,0.308,0.34,0.616,0.513,0.924c0.129,0.232,0.253,0.462,0.385,0.694l0.925,1.62l0.013-0.026
			c0.401,0.67,0.806,1.34,1.229,2.008c1.167,1.842,2.401,3.627,3.664,5.333c-1.761,5.334-1.881,9.703,0.689,11.551
			c0.76,0.547,1.652,0.801,2.65,0.801c1.719,0,3.753-0.772,5.942-2.085c3.52,3.018,6.609,4.597,8.984,4.597
			c0.867-0.001,1.642-0.209,2.307-0.631c1.388-0.88,2.141-2.54,2.24-4.94c0.023-0.008,0.047-0.021,0.07-0.029
			c0.051-0.018,0.102-0.031,0.153-0.047c0.158-0.05,0.314-0.093,0.469-0.13c0.105-0.025,0.211-0.048,0.315-0.067
			c0.077-0.014,0.152-0.025,0.228-0.037c2.464-0.362,4.511,0.734,4.558,0.76c0.047,0.026,0.098,0.036,0.148,0.054
			c0.249,0.092,0.521,0.091,0.759-0.019c0.014-0.006,0.025-0.019,0.039-0.026c0.08-0.041,0.157-0.088,0.225-0.151
			c0.318-0.298,0.408-0.768,0.221-1.161C44.065,45.559,44.027,45.481,43.962,45.363z M3.349,11.265
			c-0.92-4.166-0.644-7.133,0.793-8.043c0.354-0.225,0.789-0.335,1.296-0.335c1.541,0,3.75,1.037,6.346,3.05L6.219,6.501
			L3.349,11.265z M9.071,25.564c-0.301-0.556-0.595-1.11-0.878-1.661c-0.137-0.267-0.267-0.531-0.4-0.797
			c-0.217-0.436-0.428-0.87-0.633-1.302c-0.114-0.239-0.231-0.48-0.34-0.718c-0.275-0.597-0.535-1.188-0.785-1.774
			c-0.1-0.235-0.196-0.467-0.292-0.7c-0.207-0.503-0.406-1.002-0.593-1.495c-0.053-0.139-0.111-0.281-0.162-0.419
			c-0.226-0.608-0.43-1.205-0.624-1.794c-0.057-0.173-0.112-0.344-0.166-0.515c-0.047-0.15-0.085-0.293-0.13-0.442L7.416,8.39
			l6.471-0.656c2.75,2.496,5.611,5.745,8.355,9.486l-9.091,0.222L9.071,25.564z M12.102,30.733
			c-0.647-1.022-1.257-2.045-1.849-3.067l4.146-8.254l9.244-0.226c0.004,0.006,0.008,0.012,0.012,0.018
			c-0.047,0.065-0.09,0.131-0.136,0.197c-0.382,0.539-0.76,1.082-1.131,1.631c-0.135,0.2-0.266,0.399-0.399,0.599
			c-0.222,0.334-0.441,0.668-0.657,1.004c-0.355,0.55-0.7,1.099-1.037,1.648c-0.054,0.088-0.109,0.176-0.163,0.264
			c-1.106,1.813-2.108,3.612-2.994,5.371c-0.105,0.207-0.207,0.413-0.309,0.62c-0.132,0.269-0.267,0.539-0.393,0.806
			c-0.253,0.53-0.491,1.056-0.721,1.578c-0.026,0.06-0.053,0.12-0.079,0.18c-0.262,0.6-0.51,1.193-0.74,1.778
			C13.937,33.539,13.001,32.151,12.102,30.733z M24.477,44.236c-0.249,0.181-0.493,0.353-0.735,0.52
			c-0.229,0.157-0.458,0.314-0.684,0.46c-3.246,2.1-5.818,2.789-7.123,1.85c-1.606-1.156-1.488-4.901,0.326-10.079
			c0.177-0.505,0.364-1.016,0.569-1.537c0.071-0.18,0.151-0.367,0.226-0.55c0.199-0.488,0.404-0.978,0.626-1.477
			c0.093-0.209,0.196-0.425,0.293-0.637c0.224-0.488,0.453-0.978,0.698-1.475c0.11-0.223,0.23-0.452,0.344-0.678
			c0.253-0.498,0.509-0.998,0.781-1.502c0.126-0.234,0.262-0.473,0.394-0.71c0.278-0.502,0.558-1.005,0.854-1.511
			c0.156-0.268,0.325-0.541,0.488-0.812c0.287-0.478,0.573-0.956,0.874-1.436c0.228-0.363,0.472-0.731,0.711-1.098
			c0.255-0.392,0.504-0.785,0.768-1.177c0.516-0.767,1.051-1.539,1.611-2.318c4.387-6.1,9.25-11.286,13.693-14.604
			c3.018-2.254,5.635-3.458,7.397-3.458c0.587,0,1.08,0.134,1.461,0.407c3.072,2.21-0.1,13.84-9.562,26.996
			c-1.75,2.433-3.519,4.642-5.259,6.619c-0.002,0.002-0.004,0.003-0.006,0.005c-0.196,0.222-0.391,0.432-0.587,0.649
			c-0.318,0.353-0.636,0.704-0.952,1.04c-0.234,0.25-0.468,0.493-0.702,0.735c-0.306,0.317-0.611,0.628-0.914,0.929
			c-0.203,0.202-0.406,0.405-0.608,0.601c-0.416,0.403-0.827,0.79-1.234,1.162c-0.087,0.079-0.175,0.165-0.262,0.243
			c-0.503,0.453-0.997,0.879-1.483,1.284c-0.143,0.119-0.283,0.228-0.425,0.343c-0.334,0.271-0.664,0.532-0.988,0.779
			C24.868,43.95,24.672,44.094,24.477,44.236z M33.579,49.681c-1.557,0.983-4.745-0.319-8.476-3.41
			c1.168-0.822,2.367-1.781,3.579-2.848c0.335-0.293,0.672-0.595,1.01-0.906c0.075-0.069,0.149-0.137,0.224-0.207
			c1.204-1.119,2.424-2.342,3.647-3.67c0.291,0.934,0.521,1.823,0.72,2.686c-1.201,0.402-2.436,1.05-3.703,1.975
			c-0.419,0.306-0.534,0.883-0.265,1.326l2.14,3.524c0.161,0.266,0.436,0.441,0.744,0.476c0.037,0.004,0.074,0.006,0.11,0.006
			c0.271,0,0.53-0.109,0.721-0.307c0.229-0.238,0.462-0.45,0.695-0.645C34.549,48.519,34.211,49.28,33.579,49.681z M40.083,44.088
			c-0.126-0.012-0.253-0.023-0.383-0.031c-0.073-0.004-0.145-0.007-0.218-0.009c-1.213-0.043-2.59,0.138-4.003,0.793
			c-0.034,0.016-0.061,0.041-0.092,0.06c-0.625,0.298-1.248,0.679-1.854,1.171l-1.017-1.675c1.136-0.731,2.219-1.194,3.244-1.405
			c0.217-0.045,0.43-0.079,0.636-0.099c0.037-0.004,0.073-0.005,0.109-0.008c0.208-0.017,0.411-0.024,0.606-0.019
			c0.021,0.001,0.042,0.002,0.063,0.003c0.209,0.009,0.413,0.027,0.608,0.058c0.007,0.001,0.014,0.003,0.021,0.004
			c0.206,0.033,0.404,0.078,0.595,0.133c0.001,0,0.002,0.001,0.003,0.001c0.192,0.055,0.376,0.121,0.554,0.194
			c0.016,0.007,0.032,0.015,0.048,0.022c0.157,0.067,0.308,0.139,0.454,0.218c0.109,0.06,0.212,0.124,0.315,0.189
			c0.047,0.029,0.096,0.056,0.141,0.086c0.158,0.107,0.309,0.219,0.452,0.335C40.273,44.099,40.176,44.096,40.083,44.088z"/>
	</g>
</g>
<g>
</g>
<g>
</g>
<g>
</g>
<g>
</g>
<g>
</g>
<g>
</g>
<g>
</g>
<g>
</g>
<g>
</g>
<g>
</g>
<g>
</g>
<g>
</g>
<g>
</g>
<g>
</g>
<g>
</g>
</svg>
