<?xml version="1.0" encoding="iso-8859-1"?>
<!-- Generator: Adobe Illustrator 19.0.0, SVG Export Plug-In . SVG Version: 6.00 Build 0)  -->
<svg version="1.1" id="Capa_1" xmlns="http://www.w3.org/2000/svg" xmlns:xlink="http://www.w3.org/1999/xlink" x="0px" y="0px"
	 viewBox="0 0 57.545 57.545" style="enable-background:new 0 0 57.545 57.545;" xml:space="preserve">
<g>
	<g>
		<path d="M57.545,14.66c0-1.041-0.404-2.02-1.141-2.755L45.663,1.164c-1.471-1.473-4.039-1.473-5.51,0L11.78,29.537
			c-0.986,0.986-1.319,2.473-0.849,3.786c0.504,1.407,1.803,2.345,3.476,2.507c0.157,0.016,0.226,0.118,0.256,0.202
			c0.025,0.071,0.05,0.21-0.074,0.334l-13.69,13.69C0.319,50.636,0,51.406,0,52.227c0,0.819,0.319,1.59,0.898,2.169l2.192,2.192
			c0.598,0.598,1.384,0.897,2.169,0.897s1.571-0.3,2.169-0.897l13.125-13.125c0.266-0.264,0.553-0.237,0.703-0.196
			c0.3,0.083,0.529,0.327,0.613,0.655c0.357,1.397,1.345,2.443,2.64,2.799c1.249,0.342,2.604-0.014,3.521-0.933l8.361-8.362
			c1.452,1.004,3.21,1.596,5.105,1.596c4.963,0,9-4.037,9-9c0-1.895-0.592-3.653-1.596-5.105l7.503-7.503
			C57.141,16.68,57.545,15.701,57.545,14.66z M6.015,55.174c-0.404,0.402-1.105,0.402-1.51,0l-2.192-2.192
			C2.111,52.779,2,52.512,2,52.227s0.11-0.553,0.313-0.755l3.574-3.574L9.588,51.6L6.015,55.174z M11.002,50.186L7.3,46.484
			l1.086-1.086l3.702,3.702L11.002,50.186z M41.497,37.022c-1.762,0-3.369-0.659-4.601-1.738c-0.18-0.157-0.349-0.323-0.51-0.495
			c-0.044-0.047-0.087-0.094-0.13-0.143c-0.153-0.174-0.298-0.354-0.432-0.54c-0.023-0.032-0.049-0.063-0.072-0.096
			c-0.16-0.23-0.307-0.468-0.438-0.714c-0.001-0.001-0.001-0.002-0.001-0.003c-0.126-0.238-0.236-0.485-0.333-0.736
			c-0.017-0.043-0.032-0.086-0.047-0.129c-0.081-0.22-0.15-0.444-0.209-0.671c-0.011-0.044-0.023-0.087-0.034-0.131
			c-0.06-0.256-0.108-0.516-0.14-0.78c-0.001-0.011-0.004-0.021-0.005-0.032c-0.032-0.28-0.047-0.564-0.045-0.85
			c0-0.046,0.006-0.091,0.007-0.136c0.005-0.217,0.021-0.435,0.047-0.653c0.011-0.09,0.027-0.179,0.041-0.269
			c0.048-0.303,0.111-0.601,0.199-0.89c0.016-0.054,0.034-0.107,0.051-0.161c0.099-0.299,0.218-0.589,0.356-0.87
			c0.024-0.049,0.046-0.098,0.07-0.146c0.161-0.311,0.342-0.61,0.547-0.893c0.007-0.01,0.015-0.019,0.022-0.029
			c0.434-0.593,0.959-1.118,1.552-1.552c0.01-0.007,0.019-0.015,0.029-0.022c0.283-0.205,0.582-0.386,0.893-0.547
			c0.048-0.025,0.098-0.047,0.147-0.071c0.281-0.138,0.571-0.257,0.87-0.355c0.054-0.017,0.107-0.035,0.161-0.051
			c0.29-0.088,0.588-0.151,0.891-0.199c0.089-0.014,0.178-0.03,0.269-0.041c0.214-0.025,0.427-0.04,0.639-0.046
			c0.051-0.002,0.102-0.007,0.153-0.008c0.283-0.002,0.565,0.013,0.843,0.045c0.015,0.002,0.03,0.005,0.046,0.007
			c0.259,0.031,0.514,0.078,0.767,0.137c0.046,0.011,0.091,0.023,0.137,0.035c0.226,0.058,0.448,0.127,0.666,0.207
			c0.044,0.016,0.089,0.031,0.132,0.049c0.251,0.098,0.497,0.207,0.736,0.333c0.001,0,0.001,0.001,0.002,0.001
			c0.247,0.131,0.485,0.278,0.715,0.438c0.032,0.022,0.062,0.047,0.094,0.07c0.187,0.135,0.367,0.279,0.541,0.433
			c0.048,0.043,0.096,0.086,0.143,0.13c0.172,0.161,0.338,0.331,0.495,0.51c1.079,1.232,1.738,2.839,1.738,4.601
			C48.497,33.882,45.356,37.022,41.497,37.022z M54.99,16.001l-7.403,7.402c-0.043-0.04-0.092-0.073-0.136-0.112
			c-0.159-0.141-0.322-0.275-0.49-0.404c-0.085-0.065-0.169-0.13-0.256-0.192c-0.177-0.126-0.361-0.244-0.547-0.358
			c-0.079-0.048-0.157-0.099-0.238-0.145c-0.227-0.129-0.46-0.245-0.698-0.354c-0.043-0.02-0.084-0.043-0.127-0.061
			c-0.869-0.381-1.808-0.627-2.794-0.715c-0.063-0.006-0.127-0.005-0.191-0.01c-0.203-0.014-0.406-0.031-0.613-0.031
			c-0.048,0-0.094,0.006-0.141,0.007c-0.116,0.002-0.233,0.012-0.349,0.018c-0.196,0.011-0.391,0.022-0.583,0.045
			c-0.055,0.006-0.109,0.005-0.163,0.013c-0.161,0.022-0.32,0.055-0.479,0.086c-0.042,0.008-0.085,0.014-0.127,0.023
			c-0.541,0.113-1.067,0.275-1.571,0.486c-0.138,0.057-0.27,0.122-0.404,0.185c-0.088,0.042-0.178,0.083-0.264,0.128
			c-0.18,0.092-0.355,0.192-0.529,0.296c-0.024,0.015-0.048,0.029-0.072,0.044c-1.218,0.746-2.243,1.771-2.989,2.989
			c-0.015,0.024-0.029,0.048-0.044,0.072c-0.104,0.173-0.203,0.348-0.296,0.528c-0.045,0.087-0.086,0.177-0.128,0.265
			c-0.063,0.134-0.128,0.266-0.184,0.403c-0.211,0.504-0.373,1.03-0.486,1.572c-0.009,0.042-0.014,0.085-0.023,0.127
			c-0.031,0.159-0.064,0.317-0.086,0.479c-0.007,0.055-0.007,0.11-0.013,0.165c-0.022,0.184-0.033,0.371-0.044,0.558
			c-0.007,0.128-0.018,0.256-0.019,0.384c-0.001,0.044-0.007,0.086-0.007,0.13c0,0.187,0.017,0.37,0.028,0.554
			c0.005,0.087,0.005,0.175,0.013,0.262c0.088,0.979,0.333,1.912,0.711,2.775c0.023,0.053,0.051,0.104,0.076,0.157
			c0.106,0.229,0.218,0.455,0.341,0.673c0.047,0.083,0.099,0.162,0.148,0.243c0.113,0.185,0.23,0.367,0.355,0.543
			c0.062,0.087,0.128,0.173,0.193,0.258c0.129,0.168,0.263,0.331,0.404,0.49c0.039,0.044,0.072,0.092,0.112,0.136l-8.261,8.262
			c-0.412,0.412-1.017,0.573-1.579,0.417c-0.354-0.097-0.984-0.402-1.23-1.365c-0.261-1.018-1.035-1.817-2.022-2.088
			c-0.948-0.258-1.939,0.005-2.646,0.711l-5.637,5.637L9.8,43.984l6.203-6.203c0.641-0.641,0.849-1.569,0.543-2.424
			c-0.305-0.85-1.051-1.432-1.946-1.518c-0.895-0.087-1.545-0.521-1.785-1.191c-0.212-0.589-0.063-1.255,0.38-1.697L41.567,2.578
			c0.358-0.358,0.834-0.556,1.341-0.556s0.982,0.197,1.341,0.556L54.99,13.319c0.358,0.358,0.555,0.834,0.555,1.341
			S55.349,15.643,54.99,16.001z"/>
	</g>
</g>
<g>
</g>
<g>
</g>
<g>
</g>
<g>
</g>
<g>
</g>
<g>
</g>
<g>
</g>
<g>
</g>
<g>
</g>
<g>
</g>
<g>
</g>
<g>
</g>
<g>
</g>
<g>
</g>
<g>
</g>
</svg>
