<?xml version="1.0" encoding="iso-8859-1"?>
<!-- Generator: Adobe Illustrator 19.0.0, SVG Export Plug-In . SVG Version: 6.00 Build 0)  -->
<svg version="1.1" id="Capa_1" xmlns="http://www.w3.org/2000/svg" xmlns:xlink="http://www.w3.org/1999/xlink" x="0px" y="0px"
	 viewBox="0 0 58.985 58.985" style="enable-background:new 0 0 58.985 58.985;" xml:space="preserve">
<g>
	<g>
		<path d="M25,11.491c0-0.552-0.448-1-1-1H7c-0.552,0-1,0.448-1,1s0.448,1,1,1h17C24.552,12.491,25,12.044,25,11.491z"/>
		<path d="M56.334,45.692l-0.267-0.2H52v-1.096c0-2.163-1.282-4.116-3.267-4.977l-13.159-5.703l0.982-0.982l-5.657-5.657L29,28.977
			v-1.894l-2-2.005v-1.586h4v-8h-4v-0.586l2-2v-2.328c0-1.702-1.385-3.086-3.086-3.086H9v-3c0-1.654-1.346-3-3-3s-3,1.346-3,3v3.827
			c-0.611,0.564-1,1.365-1,2.26v1.341c0,0.637,0.248,1.236,0.7,1.688l1.186,1.185C3.959,14.865,4,14.963,4,15.066v14.851
			c0,0.102-0.041,0.201-0.113,0.273l-1.188,1.189C2.248,31.829,2,32.428,2,33.066v8.331v0.952c0,2.442,1.714,4.482,4,5.005v3.138H0
			v7h53.538c0.258,0,0.511-0.049,0.75-0.145l0.533-0.213c2.251-0.901,3.786-2.874,4.104-5.279
			C59.243,49.45,58.274,47.146,56.334,45.692z M29,31.805l1.899-1.899l2.829,2.829l-0.127,0.127l-4.873,4.873
			c-0.098,0.097-0.203,0.183-0.314,0.256c-0.038,0.025-0.079,0.04-0.118,0.062c-0.076,0.043-0.15,0.088-0.229,0.12
			c-0.101,0.041-0.207,0.069-0.312,0.092c-0.02,0.004-0.039,0.013-0.058,0.017c-0.079,0.015-0.16,0.017-0.241,0.023
			c-0.047,0.003-0.094,0.013-0.142,0.013s-0.094-0.01-0.142-0.013c-0.081-0.006-0.161-0.008-0.241-0.023
			c-0.02-0.004-0.039-0.013-0.058-0.017c-0.106-0.024-0.211-0.051-0.312-0.092c-0.079-0.032-0.154-0.078-0.229-0.12
			c-0.039-0.022-0.081-0.037-0.118-0.062c-0.111-0.073-0.216-0.158-0.314-0.256c-0.78-0.78-0.779-2.049,0-2.829L29,31.805z
			 M29,17.491v4h-2h-4c-1.103,0-2-0.897-2-2s0.897-2,2-2h4H29z M5,4.491c0-0.551,0.449-1,1-1s1,0.449,1,1v3H5.086H5V4.491z
			 M4,33.066c0-0.102,0.041-0.201,0.113-0.273l1.188-1.188C5.752,31.154,6,30.554,6,29.917v-8.426h3v-2H6v-2h3v-2H6v-0.425
			c0-0.637-0.248-1.236-0.7-1.688l-1.186-1.185C4.042,12.121,4,12.021,4,11.919v-1.341c0-0.599,0.487-1.087,1.086-1.087H9h16.914
			c0.599,0,1.086,0.488,1.086,1.087v1.5l-2,2v1.415h-2c-2.206,0-4,1.794-4,4s1.794,4,4,4h2v2.414l2,2.005v3.067l-2.515,2.515
			c-1.56,1.56-1.56,4.098,0,5.657c0.39,0.39,0.841,0.682,1.323,0.877c0.254,0.103,0.517,0.175,0.784,0.224
			c1.249,0.228,2.586-0.136,3.55-1.101l3.911-3.911l13.885,6.017C49.19,41.797,50,43.03,50,44.396v1.096H37h-3H20.315l-10.172-7.12
			L4,40.653V33.066z M50,47.491v2.266c0,0.405-0.33,0.734-0.734,0.734H39v-3H50z M32,47.491v3H13v-3h10.172H32z M5.966,45.258
			c-0.071-0.029-0.137-0.067-0.205-0.101c-0.106-0.053-0.213-0.106-0.312-0.169c-0.068-0.044-0.13-0.094-0.194-0.143
			c-0.09-0.068-0.179-0.138-0.261-0.216c-0.06-0.056-0.115-0.117-0.17-0.178c-0.075-0.082-0.146-0.167-0.212-0.257
			c-0.049-0.067-0.095-0.137-0.138-0.208c-0.058-0.095-0.111-0.193-0.16-0.294c-0.036-0.076-0.07-0.152-0.1-0.231
			c-0.04-0.106-0.073-0.215-0.101-0.326c-0.021-0.082-0.043-0.164-0.057-0.248c-0.007-0.038-0.007-0.078-0.012-0.116l5.814-2.159
			l6.971,4.88H11H7.143c-0.208,0-0.411-0.023-0.608-0.061c-0.065-0.013-0.126-0.037-0.189-0.054
			C6.217,45.342,6.088,45.308,5.966,45.258z M56.942,51.592c-0.222,1.678-1.292,3.056-2.864,3.684l-0.541,0.215H2v-3h6v-5h3v5h23v-5
			h3v5h12.266c1.508,0,2.734-1.227,2.734-2.734v-2.266h3.383C56.57,48.511,57.15,50.021,56.942,51.592z"/>
		<path d="M20,31.491c0-3.309-2.691-6-6-6s-6,2.691-6,6s2.691,6,6,6S20,34.8,20,31.491z M10,31.491c0-2.206,1.794-4,4-4s4,1.794,4,4
			c0,2.206-1.794,4-4,4S10,33.697,10,31.491z"/>
	</g>
</g>
<g>
</g>
<g>
</g>
<g>
</g>
<g>
</g>
<g>
</g>
<g>
</g>
<g>
</g>
<g>
</g>
<g>
</g>
<g>
</g>
<g>
</g>
<g>
</g>
<g>
</g>
<g>
</g>
<g>
</g>
</svg>
