<?xml version="1.0" encoding="iso-8859-1"?>
<!-- Generator: Adobe Illustrator 19.0.0, SVG Export Plug-In . SVG Version: 6.00 Build 0)  -->
<svg version="1.1" id="Capa_1" xmlns="http://www.w3.org/2000/svg" xmlns:xlink="http://www.w3.org/1999/xlink" x="0px" y="0px"
	 viewBox="0 0 60 60" style="enable-background:new 0 0 60 60;" xml:space="preserve">
<g>
	<g>
		<path d="M55.586,8.536h2.828L60,6.95V4.122l-1.586-1.586h-2.828L54,4.122v0.414h-2.414L45,11.122v5.343h-2v4.332
			c-5.965,1.309-10.505,6.428-10.949,12.668H12v-19h4.95c1.13,0,2.05-0.92,2.05-2.1c0-1.021-0.731-1.872-1.738-2.025L5.152,8.476
			L5,8.464c-1.654,0-3,1.346-3,3c0,1.654,1.346,3,3,3h1v19.685c-2.361,1.126-4,3.53-4,6.315s1.639,5.188,4,6.315v2.685H0v5h3v3h7v-3
			h40v3h7v-3h3v-5H49v-1.332c6.282-1.378,11-6.979,11-13.668s-4.718-12.29-11-13.668v-4.332h-2V11.95l5.414-5.414H54V6.95
			L55.586,8.536z M56,4.95l0.414-0.414h1.172L58,4.95v1.172l-0.414,0.414h-1.172L56,6.122V4.95z M45,18.464h2v2.043
			c-0.692-0.059-1.307-0.059-2,0V18.464z M43,48.133v1.332H12v-2.596l21.372-6.4C35.209,44.315,38.738,47.198,43,48.133z
			 M34.051,35.464h8.078c0.024,0.091,0.051,0.181,0.082,0.27l-7.67,2.297C34.285,37.21,34.124,36.349,34.051,35.464z M32.051,35.464
			c0.077,1.084,0.264,2.138,0.575,3.14l-17.498,5.24c0.004-0.008,0.008-0.016,0.013-0.024c0.009-0.016,0.018-0.033,0.027-0.049
			c0.009-0.016,0.018-0.032,0.027-0.049c0.004-0.008,0.051-0.104,0.055-0.112c0.028-0.055,0.052-0.113,0.078-0.169
			c0.085-0.18,0.162-0.364,0.232-0.552c0.019-0.05,0.039-0.096,0.057-0.148c0.006-0.016,0.033-0.09,0.038-0.105
			c0.002-0.006,0.003-0.013,0.005-0.019c0.096-0.295,0.169-0.599,0.225-0.91c0.001-0.005,0.003-0.01,0.004-0.015
			c0-0.002,0.001-0.004,0.001-0.006l0.031-0.202c0.002-0.013,0.002-0.023,0.004-0.035c0.02-0.141,0.038-0.281,0.049-0.424
			C15.989,40.831,16,40.645,16,40.464c0-0.243-0.013-0.483-0.037-0.72c-0.008-0.078-0.025-0.154-0.035-0.231
			c-0.021-0.157-0.041-0.314-0.073-0.468c-0.02-0.096-0.049-0.189-0.073-0.284c-0.033-0.13-0.062-0.263-0.102-0.39
			c-0.032-0.102-0.073-0.199-0.11-0.299c-0.042-0.116-0.081-0.234-0.129-0.347c-0.043-0.1-0.094-0.195-0.141-0.293
			c-0.052-0.108-0.1-0.217-0.158-0.322c-0.053-0.096-0.114-0.188-0.171-0.281c-0.061-0.1-0.119-0.202-0.184-0.298
			c-0.063-0.093-0.134-0.18-0.202-0.27s-0.133-0.183-0.206-0.27c-0.073-0.088-0.154-0.17-0.231-0.255
			c-0.075-0.082-0.147-0.166-0.226-0.244c-0.01-0.009-0.018-0.02-0.027-0.029L32.051,35.464L32.051,35.464z M5,12.464
			c-0.551,0-1-0.448-1-1c0-0.53,0.415-0.965,0.937-0.998l12.021,1.85L17,12.415c0,0.027-0.022,0.05-0.05,0.05H12H6H5V12.464z
			 M10,14.464v19H9c-0.312,0-0.616,0.028-0.917,0.067C8.055,33.535,8.028,33.534,8,33.538V14.464H10z M4,40.464
			c0-2.292,1.559-4.208,3.666-4.796c0.142-0.04,0.283-0.085,0.426-0.112c0.274-0.051,0.554-0.081,0.841-0.085
			c0.045-0.001,0.089-0.001,0.134,0c0.287,0.004,0.568,0.034,0.841,0.085c0.143,0.027,0.284,0.072,0.426,0.112
			C12.441,36.256,14,38.172,14,40.464c0,0.316-0.037,0.623-0.093,0.923c-0.017,0.094-0.045,0.179-0.066,0.27
			c-0.057,0.229-0.122,0.455-0.209,0.671c-0.019,0.047-0.038,0.095-0.06,0.145c-0.096,0.217-0.213,0.421-0.337,0.621
			c-0.049,0.077-0.092,0.157-0.145,0.231c-0.123,0.176-0.264,0.337-0.408,0.495c-0.096,0.105-0.199,0.211-0.308,0.311
			c-0.162,0.15-0.329,0.294-0.51,0.421c-0.088,0.062-0.19,0.117-0.284,0.174c-0.155,0.094-0.313,0.183-0.479,0.26
			c-0.111,0.052-0.224,0.098-0.338,0.141c-0.14,0.053-0.285,0.093-0.43,0.134c-0.142,0.04-0.283,0.085-0.426,0.112
			c-0.274,0.051-0.554,0.081-0.841,0.085c-0.045,0.001-0.089,0.001-0.134,0c-0.287-0.004-0.568-0.034-0.841-0.085
			c-0.143-0.027-0.284-0.072-0.426-0.112C5.559,44.673,4,42.756,4,40.464z M10,47.391v2.073H8v-2.073
			c0.028,0.004,0.056,0.002,0.083,0.006c0.301,0.04,0.605,0.067,0.917,0.067s0.616-0.028,0.917-0.067
			C9.944,47.394,9.972,47.395,10,47.391z M8,55.464H5v-1h3V55.464z M55,55.464h-3v-1h3V55.464z M58,51.464v1h-1h-7H10H3H2v-1h4h6h31
			h6H58z M45,49.464v-1.043c0.693,0.059,1.308,0.059,2,0v1.043H45z M47.847,22.623l0.59,0.091C53.889,23.843,58,28.682,58,34.464
			s-4.111,10.621-9.564,11.75l-0.59,0.091c-0.311,0.048-0.594,0.082-0.87,0.109c-0.323,0.026-0.647,0.05-0.977,0.05
			c-0.332,0-0.657-0.023-0.982-0.05c-0.274-0.026-0.556-0.06-0.865-0.108l-0.589-0.091c-3.611-0.748-6.624-3.128-8.254-6.327
			l8.078-2.419c0.703,0.612,1.609,0.995,2.612,0.995c2.206,0,4-1.794,4-4s-1.794-4-4-4c-1.858,0-3.411,1.28-3.858,3H34.05
			c0.443-5.333,4.379-9.688,9.513-10.75l0.589-0.091c0.311-0.048,0.593-0.082,0.869-0.109c0.323-0.026,0.648-0.05,0.978-0.05
			c0.329,0,0.653,0.023,0.976,0.049C47.252,22.54,47.536,22.574,47.847,22.623z M44,34.464c0-1.103,0.897-2,2-2s2,0.897,2,2
			s-0.897,2-2,2c-0.617,0-1.163-0.287-1.53-0.728c-0.006-0.008-0.01-0.018-0.016-0.026C44.247,35.455,44,35.031,44,34.464z"/>
		<path d="M47.534,3.515l1.414,1.414l-4.242,4.242l-1.414-1.414L47.534,3.515z"/>
	</g>
</g>
<g>
</g>
<g>
</g>
<g>
</g>
<g>
</g>
<g>
</g>
<g>
</g>
<g>
</g>
<g>
</g>
<g>
</g>
<g>
</g>
<g>
</g>
<g>
</g>
<g>
</g>
<g>
</g>
<g>
</g>
</svg>
