<?xml version="1.0" encoding="iso-8859-1"?>
<!-- Generator: Adobe Illustrator 19.0.0, SVG Export Plug-In . SVG Version: 6.00 Build 0)  -->
<svg version="1.1" id="Capa_1" xmlns="http://www.w3.org/2000/svg" xmlns:xlink="http://www.w3.org/1999/xlink" x="0px" y="0px"
	 viewBox="0 0 58 58" style="enable-background:new 0 0 58 58;" xml:space="preserve">
<g>
	<g>
		<path d="M38.5,19.948c-3.032,0-5.5,2.468-5.5,5.5s2.468,5.5,5.5,5.5s5.5-2.468,5.5-5.5S41.532,19.948,38.5,19.948z M38.5,28.948
			c-1.93,0-3.5-1.57-3.5-3.5s1.57-3.5,3.5-3.5s3.5,1.57,3.5,3.5S40.43,28.948,38.5,28.948z"/>
		<path d="M56.223,50.37c-0.876,1.084-2.021,1.681-3.223,1.681s-2.347-0.597-3.223-1.681c-1.263-1.563-2.959-2.423-4.777-2.423
			s-3.515,0.86-4.777,2.423c-0.876,1.084-2.021,1.682-3.223,1.682s-2.347-0.598-3.223-1.682c-1.263-1.563-2.959-2.423-4.777-2.423
			s-3.515,0.86-4.777,2.423c-0.876,1.084-2.021,1.682-3.223,1.682s-2.347-0.598-3.223-1.682c-1.263-1.563-2.959-2.423-4.777-2.423
			s-3.515,0.86-4.777,2.423C7.347,51.454,6.202,52.052,5,52.052s-2.347-0.598-3.223-1.682c-0.347-0.429-0.976-0.497-1.406-0.148
			c-0.429,0.347-0.496,0.977-0.148,1.406C1.485,53.191,3.182,54.052,5,54.052s3.515-0.861,4.777-2.424
			c0.876-1.084,2.021-1.681,3.223-1.681s2.347,0.597,3.223,1.681c1.263,1.563,2.959,2.424,4.777,2.424s3.515-0.861,4.777-2.424
			c0.876-1.084,2.021-1.681,3.223-1.681s2.347,0.597,3.223,1.681c1.263,1.563,2.959,2.424,4.777,2.424s3.515-0.861,4.777-2.424
			c0.876-1.084,2.021-1.681,3.223-1.681s2.347,0.597,3.223,1.681c1.263,1.563,2.959,2.423,4.777,2.423s3.515-0.86,4.777-2.423
			c0.348-0.43,0.28-1.06-0.148-1.406C57.198,49.873,56.568,49.942,56.223,50.37z"/>
		<path d="M56.223,43.37c-0.876,1.084-2.021,1.681-3.223,1.681s-2.347-0.597-3.223-1.681c-1.263-1.563-2.959-2.423-4.777-2.423
			s-3.515,0.86-4.777,2.423c-0.876,1.084-2.021,1.682-3.223,1.682s-2.347-0.598-3.223-1.682c-1.263-1.563-2.959-2.423-4.777-2.423
			s-3.515,0.86-4.777,2.423c-0.876,1.084-2.021,1.682-3.223,1.682s-2.347-0.598-3.223-1.682c-1.263-1.563-2.959-2.423-4.777-2.423
			s-3.515,0.86-4.777,2.423C7.347,44.454,6.202,45.052,5,45.052s-2.347-0.598-3.223-1.682c-0.347-0.429-0.976-0.498-1.406-0.148
			c-0.429,0.347-0.496,0.977-0.148,1.406C1.485,46.191,3.182,47.052,5,47.052s3.515-0.861,4.777-2.424
			c0.876-1.084,2.021-1.681,3.223-1.681s2.347,0.597,3.223,1.681c1.263,1.563,2.959,2.424,4.777,2.424s3.515-0.861,4.777-2.424
			c0.876-1.084,2.021-1.681,3.223-1.681s2.347,0.597,3.223,1.681c1.263,1.563,2.959,2.424,4.777,2.424s3.515-0.861,4.777-2.424
			c0.876-1.084,2.021-1.681,3.223-1.681s2.347,0.597,3.223,1.681c1.263,1.563,2.959,2.423,4.777,2.423s3.515-0.86,4.777-2.423
			c0.348-0.43,0.28-1.06-0.148-1.406C57.198,42.872,56.568,42.942,56.223,43.37z"/>
		<path d="M5,40.052c1.818,0,3.515-0.861,4.777-2.424c0.876-1.084,2.021-1.681,3.223-1.681s2.347,0.597,3.223,1.681
			c1.263,1.563,2.959,2.424,4.777,2.424s3.515-0.861,4.777-2.424c0.876-1.084,2.021-1.681,3.223-1.681s2.347,0.597,3.223,1.681
			c1.263,1.563,2.959,2.424,4.777,2.424s3.515-0.861,4.777-2.424c0.876-1.084,2.021-1.681,3.223-1.681s2.347,0.597,3.223,1.681
			c1.263,1.563,2.959,2.423,4.777,2.423s3.515-0.86,4.777-2.423c0.348-0.43,0.28-1.06-0.148-1.406
			c-0.185-0.151-0.408-0.208-0.629-0.208V7.681c0-2.059-1.675-3.733-3.733-3.733H4.378C2.515,3.948,1,5.463,1,7.326v28.688
			c-0.221,0-0.443,0.058-0.629,0.208c-0.429,0.347-0.496,0.977-0.148,1.406C1.485,39.191,3.182,40.052,5,40.052z M45,33.948
			c-1.818,0-3.515,0.86-4.777,2.423c-0.876,1.084-2.021,1.682-3.223,1.682s-2.347-0.598-3.223-1.682
			c-1.263-1.563-2.959-2.423-4.777-2.423s-3.515,0.86-4.777,2.423c-0.876,1.084-2.021,1.682-3.223,1.682s-2.347-0.598-3.223-1.682
			c-1.263-1.563-2.959-2.423-4.777-2.423s-3.515,0.86-4.777,2.423c-0.074,0.092-0.161,0.16-0.24,0.245
			C7.986,36.559,8,36.505,8,36.448v-25.5h42v25.5c0,0.057,0.014,0.111,0.017,0.168c-0.078-0.085-0.165-0.153-0.24-0.245
			C48.515,34.808,46.818,33.948,45,33.948z M3,7.326c0-0.76,0.618-1.378,1.378-1.378h48.889C54.223,5.948,55,6.725,55,7.681v28.767
			c0,0.827-0.673,1.5-1.5,1.5s-1.5-0.673-1.5-1.5v-27.5H6v27.5c0,0.827-0.673,1.5-1.5,1.5S3,37.275,3,36.448V7.326z"/>
	</g>
</g>
<g>
</g>
<g>
</g>
<g>
</g>
<g>
</g>
<g>
</g>
<g>
</g>
<g>
</g>
<g>
</g>
<g>
</g>
<g>
</g>
<g>
</g>
<g>
</g>
<g>
</g>
<g>
</g>
<g>
</g>
</svg>
