<?xml version="1.0" encoding="iso-8859-1"?>
<!-- Generator: Adobe Illustrator 19.0.0, SVG Export Plug-In . SVG Version: 6.00 Build 0)  -->
<svg version="1.1" id="Capa_1" xmlns="http://www.w3.org/2000/svg" xmlns:xlink="http://www.w3.org/1999/xlink" x="0px" y="0px"
	 viewBox="0 0 60 60" style="enable-background:new 0 0 60 60;" xml:space="preserve">
<g>
	<g>
		<circle cx="26" cy="29" r="1"/>
		<circle cx="30" cy="29" r="1"/>
		<circle cx="24" cy="31" r="1"/>
		<circle cx="28" cy="31" r="1"/>
		<circle cx="32" cy="31" r="1"/>
		<circle cx="36" cy="31" r="1"/>
		<circle cx="34" cy="29" r="1"/>
		<rect x="3" y="28" width="2" height="4"/>
		<rect x="6" y="28" width="2" height="4"/>
		<path d="M58.223,25H57v-1c0-0.553-0.448-1-1-1s-1,0.447-1,1v1h-1v-1c0-0.553-0.448-1-1-1s-1,0.447-1,1v1h-1v-8h-4v-3h-6v11H19V14
			h-6v3H9v8H8v-1c0-0.553-0.448-1-1-1s-1,0.447-1,1v1H5v-1c0-0.553-0.448-1-1-1s-1,0.447-1,1v1H1.777C0.797,25,0,25.797,0,26.777
			v6.445C0,34.203,0.797,35,1.777,35H3v1c0,0.553,0.448,1,1,1s1-0.447,1-1v-1h1v1c0,0.553,0.448,1,1,1s1-0.447,1-1v-1h1v8h4v3h6V35
			h22v11h6v-3h4v-8h1v1c0,0.553,0.448,1,1,1s1-0.447,1-1v-1h1v1c0,0.553,0.448,1,1,1s1-0.447,1-1v-1h1.223
			C59.203,35,60,34.203,60,33.223v-6.445C60,25.797,59.203,25,58.223,25z M9,33H2v-6h7V33z M13,41h-2v-6V25v-6h2V41z M17,25v10v9h-2
			v-1V17v-1h2V25z M41,33h-6c0-0.552-0.448-1-1-1s-1,0.448-1,1h-2c0-0.552-0.448-1-1-1s-1,0.448-1,1h-2c0-0.552-0.448-1-1-1
			s-1,0.448-1,1h-6v-6h4c0,0.552,0.448,1,1,1s1-0.448,1-1h2c0,0.552,0.448,1,1,1s1-0.448,1-1h2c0,0.552,0.448,1,1,1
			c0.552,0,1-0.448,1-1h2c0,0.552,0.448,1,1,1s1-0.448,1-1h4V33z M45,17v26v1h-2v-9V25v-9h2V17z M49,25v10v6h-2V19h2V25z M58,33h-7
			v-6h7V33z"/>
		<rect x="55" y="28" width="2" height="4"/>
		<rect x="52" y="28" width="2" height="4"/>
	</g>
</g>
<g>
</g>
<g>
</g>
<g>
</g>
<g>
</g>
<g>
</g>
<g>
</g>
<g>
</g>
<g>
</g>
<g>
</g>
<g>
</g>
<g>
</g>
<g>
</g>
<g>
</g>
<g>
</g>
<g>
</g>
</svg>
